<svg width="196" height="51" viewBox="0 0 196 51" fill="none" xmlns="http://www.w3.org/2000/svg">
<g clip-path="url(#clip0_242_1651)">
<path d="M21.8211 26.0044C20.8689 25.4315 19.919 24.8518 18.9668 24.2789C17.9475 23.6655 16.9236 23.0588 15.9043 22.4455C14.805 21.7804 13.7072 21.1116 12.6109 20.4391C12.1629 20.1695 11.6902 19.9628 11.3519 19.5404C11.1759 19.3548 11.061 19.1195 11.0225 18.8663C10.9576 18.1316 11.3362 17.6149 11.9187 17.2464C12.4003 16.9386 12.9201 16.6937 13.4197 16.4128C14.466 15.8264 15.5077 15.2355 16.5562 14.6491C17.3739 14.1997 18.1984 13.7504 19.0206 13.2853C20.0661 12.6981 21.1116 12.1102 22.1571 11.5216L24.3123 10.306C24.4087 10.2521 24.4624 10.2184 24.5364 10.3645C24.8388 10.9329 25.1682 11.4879 25.484 12.0473C25.5087 12.0945 25.5244 12.1552 25.5804 12.1462C25.6364 12.1372 25.6341 12.0877 25.6521 12.0428C26.1001 10.843 26.5639 9.64548 27.0209 8.44794C27.469 7.28111 27.9171 6.11577 28.3651 4.95193C28.7326 3.98805 29.0955 3.02193 29.4629 2.05356C29.1963 2.00413 28.9409 1.96144 28.6855 1.90977C27.5407 1.68509 26.3981 1.44917 25.2555 1.23573C24.2899 1.047 23.3199 0.878484 22.3543 0.68526C21.2341 0.46058 20.1139 0.235904 19.0094 -9.71975e-06C18.9889 -0.0050244 18.9675 -0.00520202 18.9469 -0.00052397C18.9263 0.00415408 18.907 0.0135593 18.8907 0.0269507C18.8835 0.047245 18.8811 0.0688853 18.8834 0.0902721C18.8857 0.111659 18.8928 0.132244 18.9041 0.150522C19.1976 0.683012 19.4844 1.22225 19.8003 1.74351C19.91 1.9255 19.8988 1.99739 19.7106 2.09625C19.0624 2.43027 18.4217 2.77478 17.7884 3.12977C16.6346 3.77011 15.4853 4.42168 14.3293 5.06202C13.6012 5.46644 12.8641 5.85738 12.136 6.26181C10.8612 6.97179 9.59318 7.69301 8.31617 8.40075C7.51861 8.85011 6.70984 9.26353 5.91227 9.7039C4.76521 10.3397 3.62262 10.9868 2.47556 11.6227C1.73848 12.0316 0.996923 12.4315 0.257604 12.8337C0.175311 12.8741 0.107352 12.9388 0.0628863 13.0192C0.0184208 13.0995 -0.000412627 13.1916 0.00892463 13.283C0.0178861 17.2464 0.0178861 21.209 0.00892463 25.1708C0.00669074 25.3922 0.0299958 25.6131 0.0783756 25.8291C0.320307 26.9081 0.851758 27.9003 1.61526 28.6983C2.11595 29.1762 2.68075 29.5815 3.29329 29.9026C4.17599 30.4238 5.05645 30.9481 5.93467 31.4753C7.05485 32.1494 8.17503 32.8234 9.29521 33.4975L12.2637 35.2949L15.8841 37.4653C16.7802 37.9955 17.6517 38.537 18.5457 39.0538C18.9937 39.3122 19.4037 39.6335 19.9414 39.7166C20.8375 39.8559 21.5836 39.5144 21.8345 38.5662C21.9488 38.1393 21.8927 37.7012 21.9241 37.2698C22.0003 36.2363 21.9555 35.196 21.9756 34.158C22.0048 32.5178 22.0653 30.8777 22.0451 29.2375C22.0339 28.2782 22.1369 27.3233 22.1056 26.3661C22.1086 26.341 22.1139 26.3162 22.1213 26.292L22.0809 26.137C21.9919 26.0976 21.9052 26.0533 21.8211 26.0044Z" fill="#2E368F"/>
<path d="M44.1977 26.8807C44.0703 26.1956 43.8303 25.5366 43.4875 24.9304C43.1371 24.3166 42.6769 23.7728 42.1299 23.3262C41.6964 23.0041 41.2404 22.7135 40.7655 22.4567C39.2555 21.546 37.7448 20.6368 36.2333 19.7291C35.1131 19.0551 33.9817 18.381 32.857 17.707L28.8244 15.2737L25.7237 13.4021C25.1211 13.0382 24.5363 12.6787 23.7679 12.7034C22.8718 12.7326 22.4237 13.4066 22.3363 14.1211C22.2713 14.6514 22.3184 15.1906 22.2848 15.7276C22.2176 16.7611 22.2601 17.8014 22.2377 18.8416C22.2064 20.3447 22.1504 21.8501 22.1705 23.3554C22.184 24.2699 22.0921 25.1798 22.1078 26.0943C22.1078 26.0943 22.1078 26.1055 22.0921 26.1257L22.1324 26.2808L23.0286 26.8133L25.8425 28.5028L29.4808 30.6957C30.666 31.4124 31.8601 32.1134 33.0228 32.8684C33.2324 33.2412 33.2886 33.6814 33.1794 34.0952C33.0702 34.509 32.8042 34.8637 32.4381 35.0837C31.9161 35.4252 31.356 35.7061 30.8093 36.0116C30.088 36.4116 29.3621 36.8047 28.6429 37.2092C27.4779 37.8652 26.3174 38.5325 25.1502 39.1841C24.2854 39.6694 23.4117 40.1188 22.5559 40.6063C21.3886 41.2601 20.2304 41.9275 19.0632 42.5813C18.2051 43.0621 17.3403 43.5249 16.4845 44.0012C15.2613 44.6753 14.0447 45.3695 12.8238 46.0481C12.4989 46.2301 12.4832 46.3267 12.77 46.5738C12.7885 46.5929 12.8088 46.6102 12.8305 46.6255C14.0739 47.4096 15.2949 48.2117 16.6817 48.7779C17.5077 49.6354 18.5472 50.256 19.6927 50.5754C20.2831 50.761 20.8901 50.889 21.5051 50.9573C22.3593 51.0886 23.2331 50.9635 24.0166 50.5978C24.9934 50.1058 25.9366 49.5486 26.8977 49.0251C27.6751 48.6004 28.4659 48.1825 29.2299 47.7534C30.3501 47.131 31.4703 46.4997 32.5904 45.8773C33.3499 45.4549 34.1139 45.0437 34.8734 44.6213C35.9935 44.0012 37.1003 43.3721 38.2182 42.752C39.0158 42.3027 39.8223 41.8848 40.6199 41.4444C41.7401 40.8243 42.8446 40.1884 43.967 39.5795C44.0412 39.5491 44.1034 39.4949 44.1439 39.4255C44.1844 39.356 44.2009 39.2752 44.191 39.1953C44.194 35.0912 44.1962 30.9863 44.1977 26.8807Z" fill="#0A9BD3"/>
<path d="M47.6614 29.66V5.68665H53.1861V25.1394H65.172V29.66H47.6614Z" fill="#2E368F"/>
<path d="M78.5985 30.0711C75.2066 30.0711 72.5547 29.1237 70.643 27.2289C68.7312 25.3341 67.7746 22.6282 67.7731 19.1112V5.68665H73.3068V18.9068C73.3068 21.1895 73.7735 22.8372 74.707 23.8497C75.6405 24.8623 76.9488 25.3641 78.6321 25.3551C80.3168 25.3551 81.626 24.8533 82.5594 23.8497C83.4929 22.8462 83.9597 21.1985 83.9597 18.9068V5.68665H89.4239V19.1112C89.4239 22.6267 88.468 25.3326 86.5562 27.2289C84.6445 29.1252 81.9919 30.0726 78.5985 30.0711Z" fill="#2E368F"/>
<path d="M94.8882 29.66V5.68665H99.463L109.643 22.605H107.215L117.22 5.68665H121.761L121.831 29.66H116.64L116.606 13.6673H117.563L109.571 27.1256H107.078L98.9163 13.6673H100.077V29.66H94.8882Z" fill="#2E368F"/>
<path d="M132.997 25.2068H146.006V29.66H127.499V5.68665H145.563V10.1398H132.997V25.2068ZM132.587 15.3434H144.093V19.6595H132.587V15.3434Z" fill="#2E368F"/>
<path d="M150.418 29.66V5.68665H154.988L169.102 22.9465H166.882V5.68665H172.346V29.66H167.794L153.655 12.4001H155.875V29.66H150.418Z" fill="#2E368F"/>
<path d="M185.858 30.0711C183.998 30.079 182.146 29.8195 180.36 29.3005C178.607 28.7852 177.195 28.1171 176.126 27.2963L178.003 23.1195C179.12 23.8962 180.345 24.502 181.639 24.917C183.011 25.3798 184.449 25.6165 185.896 25.618C186.788 25.6421 187.678 25.5315 188.537 25.2899C189.108 25.1383 189.623 24.8265 190.023 24.3912C190.338 24.019 190.508 23.5449 190.502 23.0566C190.512 22.7601 190.448 22.4658 190.317 22.2C190.185 21.9342 189.99 21.7052 189.749 21.5333C189.15 21.1086 188.479 20.7951 187.769 20.6076C186.949 20.3694 186.045 20.141 185.056 19.9223C184.067 19.7036 183.076 19.4355 182.083 19.118C181.133 18.8131 180.222 18.396 179.37 17.8755C178.557 17.3795 177.872 16.6983 177.371 15.8871C176.859 15.0663 176.603 14.0177 176.603 12.7416C176.594 11.4074 176.984 10.1013 177.723 8.99167C178.462 7.86228 179.577 6.96356 181.068 6.29551C182.559 5.62747 184.431 5.29045 186.687 5.28446C188.182 5.28367 189.672 5.46244 191.125 5.81695C192.489 6.13225 193.793 6.67043 194.983 7.40993L193.278 11.6204C192.226 11.0092 191.101 10.5321 189.931 10.2004C188.863 9.89791 187.76 9.74221 186.651 9.73761C185.761 9.70807 184.872 9.83195 184.023 10.1038C183.45 10.2812 182.939 10.6205 182.553 11.0812C182.256 11.4811 182.098 11.9685 182.105 12.4675C182.099 12.7584 182.164 13.0465 182.295 13.3063C182.426 13.566 182.618 13.7895 182.856 13.9571C183.455 14.3772 184.128 14.6819 184.838 14.8558C185.657 15.085 186.561 15.3097 187.552 15.5298C188.542 15.75 189.531 16.0196 190.52 16.3387C191.473 16.619 192.385 17.0215 193.235 17.5362C194.047 18.0323 194.732 18.7126 195.234 19.5224C195.745 20.3447 196.001 21.3835 196.002 22.6387C196.013 23.957 195.622 25.2472 194.882 26.3369C194.135 27.4558 193.015 28.3545 191.521 29.0331C190.028 29.7116 188.14 30.0576 185.858 30.0711Z" fill="#2E368F"/>
<path d="M51.7097 45.7223C50.936 45.7256 50.1657 45.6182 49.4223 45.4032C48.7892 45.2363 48.1923 44.9537 47.6614 44.5697L48.441 42.8307C48.9067 43.153 49.4169 43.405 49.9555 43.5788C50.526 43.7709 51.1236 43.8696 51.7254 43.8709C52.0967 43.8818 52.4676 43.8363 52.8254 43.7361C53.0631 43.6717 53.2775 43.5408 53.4437 43.3587C53.5742 43.2026 53.6449 43.0051 53.6431 42.8015C53.6466 42.6782 53.6198 42.5559 53.5652 42.4454C53.5105 42.3349 53.4295 42.2396 53.3295 42.1679C53.0802 41.9907 52.8008 41.8605 52.505 41.7836C52.1645 41.6833 51.7911 41.5882 51.3849 41.4983C50.9726 41.4062 50.5604 41.2961 50.1482 41.1635C49.7562 41.037 49.3803 40.8651 49.028 40.6513C48.6901 40.4449 48.4053 40.1617 48.1968 39.8244C47.9694 39.4259 47.8583 38.9712 47.8765 38.5123C47.8721 37.9581 48.0328 37.4151 48.338 36.953C48.6852 36.4521 49.169 36.062 49.7315 35.8296C50.4671 35.5267 51.2575 35.3806 52.0525 35.4005C52.6745 35.4021 53.2942 35.4775 53.8985 35.6252C54.4671 35.7603 55.0097 35.988 55.5049 36.2992L54.7947 38.0495C54.3569 37.7948 53.8887 37.597 53.4012 37.4608C52.9571 37.3351 52.4982 37.2702 52.0368 37.2676C51.666 37.2559 51.2961 37.3091 50.9435 37.4249C50.7049 37.4987 50.4926 37.6399 50.3319 37.8315C50.2079 37.9972 50.1425 38.1996 50.1459 38.4067C50.1433 38.528 50.1705 38.648 50.2253 38.7562C50.28 38.8644 50.3605 38.9573 50.4596 39.0268C50.7086 39.203 50.9882 39.331 51.284 39.4043C51.6246 39.5017 51.998 39.5968 52.4042 39.6896C52.8105 39.7825 53.2227 39.8918 53.6409 40.0177C54.0341 40.1349 54.4106 40.3026 54.7611 40.5165C55.0995 40.7222 55.3843 41.0056 55.5922 41.3433C55.8186 41.7365 55.9297 42.1859 55.9126 42.6397C55.9164 43.1885 55.753 43.7255 55.4444 44.1787C55.091 44.6766 54.6061 45.0657 54.0442 45.3021C53.3044 45.606 52.5087 45.7492 51.7097 45.7223Z" fill="#0A9BD3"/>
<path d="M61.9234 45.7223C60.512 45.7223 59.4083 45.3283 58.6122 44.5404C57.8161 43.7526 57.4181 42.6292 57.4181 41.1703V35.5757H59.7212V41.0781C59.7212 42.0285 59.9138 42.7116 60.3037 43.1295C60.7522 43.5346 61.3344 43.7588 61.938 43.7588C62.5416 43.7588 63.1238 43.5346 63.5723 43.1295C63.9607 42.7116 64.1548 42.0278 64.1548 41.0781V35.5757H66.4288V41.1635C66.4288 42.6254 66.0308 43.7488 65.2347 44.5337C64.4386 45.3186 63.3349 45.7148 61.9234 45.7223Z" fill="#0A9BD3"/>
<path d="M68.7051 45.5515V35.5758H73.011C73.8008 35.5565 74.5857 35.7051 75.3141 36.0116C75.9223 36.2722 76.441 36.7057 76.8062 37.2586C77.1484 37.8443 77.3289 38.5109 77.3289 39.1897C77.3289 39.8686 77.1484 40.5351 76.8062 41.1208C76.441 41.6737 75.9223 42.1072 75.3141 42.3678C74.5855 42.6736 73.8006 42.8214 73.011 42.8014H69.9888L71.0127 41.7612V45.5515H68.7051ZM71.0082 42.0173L69.9888 40.9209H72.8878C73.598 40.9209 74.129 40.7703 74.4785 40.4715C74.6461 40.3045 74.7792 40.1058 74.87 39.887C74.9608 39.6681 75.0075 39.4335 75.0075 39.1965C75.0075 38.9594 74.9608 38.7248 74.87 38.5059C74.7792 38.2871 74.6461 38.0884 74.4785 37.9214C74.129 37.6158 73.598 37.472 72.8878 37.472H69.9888L71.0127 36.3734L71.0082 42.0173Z" fill="#0A9BD3"/>
<path d="M78.9659 45.5515V35.5758H83.2719C84.061 35.5564 84.8451 35.7049 85.5728 36.0116C86.1817 36.271 86.7007 36.7047 87.0648 37.2586C87.4096 37.8435 87.5914 38.5104 87.5914 39.1897C87.5914 39.8691 87.4096 40.536 87.0648 41.1209C86.7007 41.6747 86.1817 42.1085 85.5728 42.3678C84.845 42.6738 84.0608 42.8216 83.2719 42.8015H80.2452L81.2668 41.7612V45.5515H78.9659ZM81.2668 42.0173L80.2452 40.9209H83.1442C83.8544 40.9209 84.3831 40.7704 84.7349 40.4715C84.9025 40.3045 85.0356 40.1058 85.1264 39.887C85.2171 39.6682 85.2639 39.4335 85.2639 39.1965C85.2639 38.9595 85.2171 38.7248 85.1264 38.506C85.0356 38.2871 84.9025 38.0885 84.7349 37.9214C84.3831 37.6159 83.8544 37.4721 83.1442 37.4721H80.2452L81.2668 36.3734V42.0173Z" fill="#0A9BD3"/>
<path d="M94.1981 45.7223C93.4541 45.7298 92.7151 45.5995 92.0182 45.3381C91.3735 45.0977 90.7837 44.7294 90.2842 44.2551C89.7977 43.7925 89.4104 43.2351 89.1461 42.6172C88.6084 41.302 88.6084 39.8275 89.1461 38.5123C89.4113 37.8932 89.801 37.3356 90.2909 36.8744C90.7928 36.4033 91.3819 36.0353 92.0249 35.7914C93.4213 35.277 94.9546 35.277 96.3511 35.7914C96.99 36.0355 97.5747 36.4035 98.0717 36.8744C98.5561 37.3372 98.9445 37.8915 99.2142 38.5056C99.4952 39.1554 99.6357 39.8576 99.6265 40.5659C99.6336 41.2732 99.4932 41.9743 99.2142 42.624C98.9475 43.2423 98.5588 43.8002 98.0717 44.2641C97.5725 44.73 96.9883 45.0947 96.3511 45.3381C95.6635 45.5995 94.9333 45.7298 94.1981 45.7223ZM94.1846 43.7586C94.6052 43.7632 95.0227 43.6869 95.4146 43.5339C95.7873 43.3823 96.1254 43.1564 96.4085 42.8698C96.6915 42.5832 96.9136 42.242 97.0612 41.8668C97.3748 41.0304 97.3748 40.1082 97.0612 39.2717C96.9122 38.8951 96.6907 38.5515 96.4093 38.2607C96.129 37.9755 95.7925 37.7521 95.4213 37.6046C95.0273 37.4507 94.6074 37.3745 94.1846 37.3799C93.764 37.3738 93.3462 37.4501 92.9547 37.6046C92.5846 37.7543 92.2486 37.9775 91.9667 38.2607C91.6763 38.5483 91.4476 38.8923 91.2946 39.2717C90.9839 40.1064 90.9839 41.0254 91.2946 41.86C91.4424 42.2398 91.6649 42.586 91.9487 42.8778C92.2291 43.163 92.5656 43.3864 92.9367 43.5339C93.3345 43.6883 93.7582 43.7646 94.1846 43.7586Z" fill="#0A9BD3"/>
<path d="M101.354 45.5515V35.5758H105.66C106.449 35.5564 107.233 35.7049 107.961 36.0116C108.569 36.271 109.089 36.7047 109.453 37.2586C109.815 37.8381 109.998 38.5119 109.979 39.1954C109.997 39.8732 109.814 40.5411 109.453 41.1141C109.088 41.6634 108.568 42.0919 107.961 42.3454C107.232 42.6476 106.448 42.7937 105.66 42.7745H102.64L103.661 41.7612V45.5515H101.354ZM103.655 42.0173L102.633 40.9366H105.532C106.243 40.9366 106.773 40.7816 107.123 40.4715C107.46 40.1321 107.649 39.6724 107.649 39.1931C107.649 38.7138 107.46 38.2541 107.123 37.9147C106.773 37.6091 106.242 37.4653 105.532 37.4653H102.64L103.661 36.3666L103.655 42.0173ZM107.676 45.5515L105.191 41.932H107.656L110.17 45.5515H107.676Z" fill="#0A9BD3"/>
<path d="M113.723 45.5515V37.463H110.539V35.5802H119.207V37.463H116.026V45.5515H113.723Z" fill="#0A9BD3"/>
<path d="M127.734 45.7223C126.96 45.7256 126.19 45.6182 125.447 45.4032C124.813 45.2358 124.215 44.9532 123.683 44.5697L124.465 42.8307C124.931 43.153 125.441 43.405 125.98 43.5788C126.55 43.7707 127.146 43.8693 127.747 43.8709C128.12 43.8817 128.491 43.8363 128.85 43.7361C129.087 43.6717 129.302 43.5408 129.468 43.3586C129.599 43.2026 129.669 43.005 129.667 42.8014C129.671 42.6781 129.644 42.5559 129.589 42.4454C129.535 42.3349 129.454 42.2396 129.354 42.1678C129.104 41.9907 128.825 41.8605 128.529 41.7836C128.189 41.6833 127.815 41.5882 127.409 41.4983C126.997 41.4062 126.585 41.2961 126.173 41.1635C125.781 41.037 125.405 40.8651 125.052 40.6513C124.714 40.4449 124.43 40.1616 124.221 39.8244C123.994 39.4259 123.883 38.9712 123.901 38.5123C123.896 37.9581 124.057 37.4151 124.362 36.953C124.71 36.4521 125.193 36.062 125.756 35.8296C126.491 35.5269 127.28 35.3808 128.075 35.4005C128.697 35.402 129.318 35.4775 129.923 35.6252C130.491 35.7611 131.034 35.9888 131.529 36.2992L130.817 38.0495C130.38 37.7949 129.912 37.5971 129.426 37.4608C128.981 37.3351 128.523 37.2701 128.061 37.2676C127.69 37.2559 127.32 37.3091 126.968 37.4249C126.729 37.4987 126.517 37.6399 126.356 37.8315C126.232 37.9972 126.167 38.1996 126.17 38.4067C126.168 38.528 126.195 38.648 126.25 38.7562C126.304 38.8644 126.385 38.9573 126.484 39.0268C126.733 39.203 127.013 39.331 127.308 39.4043C127.649 39.5016 128.022 39.5968 128.429 39.6896C128.835 39.7825 129.247 39.8918 129.665 40.0177C130.058 40.1349 130.435 40.3026 130.785 40.5165C131.123 40.7228 131.408 41.0061 131.617 41.3433C131.843 41.7365 131.954 42.1859 131.937 42.6397C131.943 43.1813 131.786 43.7121 131.487 44.163C131.133 44.6609 130.648 45.0499 130.086 45.2864C129.342 45.5982 128.54 45.7468 127.734 45.7223Z" fill="#0A9BD3"/>
<path d="M135.82 43.7001H141.232V45.5515H133.532V35.5757H141.049V37.4226H135.82V43.7001ZM135.649 39.5953H140.439V41.3927H135.649V39.5953Z" fill="#0A9BD3"/>
<path d="M143.067 45.5515V35.5758H147.373C148.163 35.5565 148.948 35.7051 149.676 36.0116C150.284 36.2713 150.802 36.7051 151.166 37.2586C151.528 37.8381 151.711 38.5118 151.692 39.1953C151.711 39.8731 151.527 40.541 151.166 41.1141C150.801 41.6628 150.283 42.0911 149.676 42.3453C148.946 42.6473 148.162 42.7935 147.373 42.7745H144.346L145.37 41.7612V45.5515H143.067ZM145.37 42.0173L144.346 40.9366H147.245C147.955 40.9366 148.485 40.7816 148.836 40.4715C149.173 40.1321 149.363 39.6723 149.363 39.1931C149.363 38.7138 149.173 38.2541 148.836 37.9147C148.486 37.6091 147.955 37.4653 147.245 37.4653H144.346L145.37 36.3666V42.0173ZM149.392 45.5515L146.905 41.9319H149.369L151.883 45.5515H149.392Z" fill="#0A9BD3"/>
<path d="M156.496 45.5515L152.21 35.5757H154.697L158.449 44.4124H156.984L160.793 35.5757H163.08L158.776 45.5515H156.496Z" fill="#0A9BD3"/>
<path d="M163.9 45.5515V35.5757H166.201V45.5515H163.9Z" fill="#0A9BD3"/>
<path d="M173.321 45.7223C172.591 45.7299 171.865 45.6019 171.181 45.3448C170.544 45.1066 169.962 44.7413 169.47 44.2708C168.99 43.805 168.609 43.2472 168.349 42.6307C167.809 41.3068 167.809 39.8227 168.349 38.4988C168.612 37.8803 168.998 37.3227 169.485 36.8609C169.979 36.3902 170.562 36.0235 171.199 35.7824C171.885 35.5259 172.612 35.398 173.343 35.405C174.145 35.3936 174.941 35.5465 175.682 35.8543C176.366 36.1435 176.968 36.5964 177.436 37.1732L175.958 38.546C175.645 38.1772 175.258 37.8787 174.822 37.6697C174.394 37.4723 173.928 37.3725 173.458 37.3777C173.021 37.3712 172.587 37.4474 172.178 37.6023C171.8 37.7484 171.457 37.9718 171.17 38.2584C170.88 38.546 170.651 38.8901 170.498 39.2695C170.184 40.1059 170.184 41.0281 170.498 41.8645C170.651 42.2439 170.88 42.588 171.17 42.8756C171.457 43.1622 171.8 43.3856 172.178 43.5316C172.587 43.6855 173.021 43.7617 173.458 43.7563C173.928 43.7607 174.394 43.6602 174.822 43.462C175.261 43.2492 175.649 42.9424 175.958 42.5633L177.436 43.9316C176.967 44.5084 176.365 44.9625 175.682 45.2549C174.936 45.5739 174.132 45.733 173.321 45.7223Z" fill="#0A9BD3"/>
<path d="M181.263 43.7001H186.678V45.5515H178.976V35.5757H186.488V37.4226H181.263V43.7001ZM181.093 39.5953H185.883V41.3927H181.093V39.5953Z" fill="#0A9BD3"/>
<path d="M191.779 45.7223C191.005 45.7258 190.235 45.6183 189.492 45.4032C188.858 45.2358 188.261 44.9532 187.729 44.5697L188.511 42.8307C188.976 43.1538 189.486 43.4059 190.025 43.5788C190.595 43.7707 191.192 43.8693 191.793 43.8709C192.165 43.8817 192.536 43.8363 192.895 43.7361C193.133 43.6717 193.347 43.5408 193.513 43.3586C193.644 43.2026 193.714 43.005 193.713 42.8014C193.716 42.6781 193.689 42.5559 193.635 42.4454C193.58 42.3349 193.499 42.2396 193.399 42.1678C193.15 41.9907 192.87 41.8605 192.575 41.7836C192.234 41.6833 191.861 41.5882 191.454 41.4983C191.042 41.4062 190.63 41.2961 190.218 41.1635C189.826 41.037 189.45 40.8651 189.098 40.6513C188.76 40.4449 188.475 40.1616 188.266 39.8244C188.039 39.4259 187.928 38.9712 187.946 38.5123C187.942 37.9581 188.102 37.4151 188.407 36.953C188.755 36.4521 189.238 36.062 189.801 35.8296C190.536 35.5269 191.326 35.3808 192.12 35.4005C192.743 35.402 193.363 35.4775 193.968 35.6252C194.536 35.7611 195.079 35.9888 195.574 36.2992L194.862 38.0495C194.425 37.7949 193.957 37.5971 193.471 37.4608C193.027 37.3351 192.568 37.2701 192.106 37.2676C191.735 37.2559 191.364 37.3091 191.011 37.4249C190.773 37.4993 190.562 37.6404 190.401 37.8315C190.277 37.9972 190.212 38.1996 190.215 38.4067C190.213 38.528 190.24 38.648 190.295 38.7562C190.349 38.8644 190.43 38.9573 190.529 39.0268C190.778 39.2034 191.058 39.3314 191.354 39.4043C191.694 39.5016 192.067 39.5968 192.474 39.6896C192.88 39.7825 193.292 39.8918 193.71 40.0177C194.104 40.1349 194.48 40.3026 194.831 40.5165C195.169 40.7228 195.453 41.0061 195.662 41.3433C195.888 41.7365 195.999 42.1859 195.982 42.6397C195.986 43.1885 195.823 43.7255 195.514 44.1787C195.161 44.6766 194.676 45.0657 194.114 45.3021C193.374 45.606 192.578 45.7492 191.779 45.7223Z" fill="#0A9BD3"/>
</g>
<defs>
<clipPath id="clip0_242_1651">
<rect width="196" height="51" fill="white"/>
</clipPath>
</defs>
</svg>
